<?xml version="1.0" standalone="no"?>
<!DOCTYPE svg PUBLIC "-//W3C//DTD SVG 20010904//EN"
 "http://www.w3.org/TR/2001/REC-SVG-20010904/DTD/svg10.dtd">
<svg version="1.0" xmlns="http://www.w3.org/2000/svg"
 width="305.000000pt" height="305.000000pt" viewBox="0 0 305.000000 305.000000"
 preserveAspectRatio="xMidYMid meet">
<metadata>
Created by potrace 1.11, written by Peter Selinger 2001-2013
</metadata>
<g transform="translate(0.000000,305.000000) scale(0.100000,-0.100000)"
fill="#000000" stroke="none">
<path d="M1529 2976 c-2 -2 -49 -6 -104 -10 -99 -6 -236 -28 -285 -45 -14 -5
-50 -17 -80 -26 -338 -103 -673 -393 -836 -725 -49 -100 -108 -268 -118 -334
-4 -21 -8 -41 -10 -45 -18 -29 -27 -325 -14 -441 37 -314 186 -620 414 -845
119 -117 220 -191 362 -263 87 -45 247 -106 306 -118 12 -2 44 -8 71 -14 122
-25 169 -29 315 -25 163 4 176 5 305 35 478 111 877 475 1034 945 51 153 74
288 74 445 2 252 -37 427 -144 645 -55 114 -87 168 -100 173 -5 2 -9 8 -9 14
0 14 -94 130 -157 195 -27 28 -87 80 -133 117 -47 37 -90 71 -97 76 -7 6 -14
10 -17 10 -2 0 -33 18 -69 40 -69 42 -230 112 -300 131 -111 30 -203 46 -302
54 -49 4 -93 9 -96 11 -3 2 -8 2 -10 0z"/>
</g>
</svg>
